<mxfile host="app.diagrams.net" modified="2022-01-13T21:04:24.789Z" agent="5.0 (Windows NT 6.1; Win64; x64) AppleWebKit/537.36 (KHTML, like Gecko) Chrome/97.0.4692.71 Safari/537.36" etag="T4gs8NQolXdHkeHWfVnK" version="16.2.4" type="github">
  <diagram id="XMa3f9ub79BXHoex0wwD" name="Page-1">
    <mxGraphModel dx="1026" dy="511" grid="1" gridSize="10" guides="1" tooltips="1" connect="1" arrows="1" fold="1" page="1" pageScale="1" pageWidth="827" pageHeight="1169" math="0" shadow="0">
      <root>
        <mxCell id="0" />
        <mxCell id="1" parent="0" />
        <mxCell id="KeloFggA4nMFP9_XQ6QC-3" value="" style="edgeStyle=orthogonalEdgeStyle;rounded=0;orthogonalLoop=1;jettySize=auto;html=1;" parent="1" edge="1">
          <mxGeometry relative="1" as="geometry">
            <mxPoint x="335.75" y="65" as="sourcePoint" />
            <mxPoint x="335.75" y="85" as="targetPoint" />
          </mxGeometry>
        </mxCell>
        <mxCell id="Dxle_c_qy-n5U7y6rL5x-14" value="1" style="text;html=1;align=center;verticalAlign=middle;resizable=0;points=[];autosize=1;strokeColor=none;fillColor=none;" parent="1" vertex="1">
          <mxGeometry x="448.75" y="40" width="20" height="20" as="geometry" />
        </mxCell>
        <mxCell id="aeHjqEfYxSuK9q3OLNgD-4" value="" style="edgeStyle=orthogonalEdgeStyle;rounded=0;orthogonalLoop=1;jettySize=auto;html=1;exitX=0.5;exitY=0.818;exitDx=0;exitDy=0;exitPerimeter=0;" parent="1" source="aeHjqEfYxSuK9q3OLNgD-2" target="aeHjqEfYxSuK9q3OLNgD-3" edge="1">
          <mxGeometry relative="1" as="geometry" />
        </mxCell>
        <mxCell id="aeHjqEfYxSuK9q3OLNgD-2" value="&quot;enter text&quot;" style="shape=document;whiteSpace=wrap;html=1;boundedLbl=1;" parent="1" vertex="1">
          <mxGeometry x="295.75" y="85" width="80" height="30" as="geometry" />
        </mxCell>
        <mxCell id="iNloG7cvI6-7VF_yUZaF-2" value="" style="edgeStyle=orthogonalEdgeStyle;rounded=0;orthogonalLoop=1;jettySize=auto;html=1;" parent="1" source="aeHjqEfYxSuK9q3OLNgD-3" target="iNloG7cvI6-7VF_yUZaF-1" edge="1">
          <mxGeometry relative="1" as="geometry" />
        </mxCell>
        <mxCell id="aeHjqEfYxSuK9q3OLNgD-3" value="a" style="shape=parallelogram;perimeter=parallelogramPerimeter;whiteSpace=wrap;html=1;fixedSize=1;" parent="1" vertex="1">
          <mxGeometry x="290.75" y="135" width="90" height="20" as="geometry" />
        </mxCell>
        <mxCell id="aeHjqEfYxSuK9q3OLNgD-8" value="" style="edgeStyle=orthogonalEdgeStyle;rounded=0;orthogonalLoop=1;jettySize=auto;html=1;" parent="1" source="aeHjqEfYxSuK9q3OLNgD-5" target="aeHjqEfYxSuK9q3OLNgD-7" edge="1">
          <mxGeometry relative="1" as="geometry" />
        </mxCell>
        <mxCell id="aeHjqEfYxSuK9q3OLNgD-5" value="i=0" style="whiteSpace=wrap;html=1;" parent="1" vertex="1">
          <mxGeometry x="590" y="45" width="80" height="15" as="geometry" />
        </mxCell>
        <mxCell id="aeHjqEfYxSuK9q3OLNgD-22" style="edgeStyle=orthogonalEdgeStyle;rounded=0;orthogonalLoop=1;jettySize=auto;html=1;entryX=0.5;entryY=0;entryDx=0;entryDy=0;" parent="1" source="aeHjqEfYxSuK9q3OLNgD-7" target="aeHjqEfYxSuK9q3OLNgD-24" edge="1">
          <mxGeometry relative="1" as="geometry">
            <mxPoint x="630" y="460" as="targetPoint" />
            <Array as="points">
              <mxPoint x="750" y="95" />
              <mxPoint x="750" y="450" />
              <mxPoint x="630" y="450" />
            </Array>
          </mxGeometry>
        </mxCell>
        <mxCell id="amo7JDpk2x5oz3WCBwlw-3" value="" style="edgeStyle=orthogonalEdgeStyle;rounded=0;orthogonalLoop=1;jettySize=auto;html=1;" edge="1" parent="1" source="aeHjqEfYxSuK9q3OLNgD-7" target="amo7JDpk2x5oz3WCBwlw-2">
          <mxGeometry relative="1" as="geometry" />
        </mxCell>
        <mxCell id="aeHjqEfYxSuK9q3OLNgD-7" value="i &amp;lt; a.length()" style="rhombus;whiteSpace=wrap;html=1;" parent="1" vertex="1">
          <mxGeometry x="570" y="80" width="120" height="30" as="geometry" />
        </mxCell>
        <mxCell id="aeHjqEfYxSuK9q3OLNgD-11" style="edgeStyle=orthogonalEdgeStyle;rounded=0;orthogonalLoop=1;jettySize=auto;html=1;exitX=0;exitY=0.5;exitDx=0;exitDy=0;entryX=0.5;entryY=0;entryDx=0;entryDy=0;" parent="1" source="aeHjqEfYxSuK9q3OLNgD-9" target="aeHjqEfYxSuK9q3OLNgD-12" edge="1">
          <mxGeometry relative="1" as="geometry">
            <mxPoint x="530" y="360" as="targetPoint" />
            <Array as="points">
              <mxPoint x="532" y="205" />
              <mxPoint x="532" y="250" />
            </Array>
          </mxGeometry>
        </mxCell>
        <mxCell id="amo7JDpk2x5oz3WCBwlw-10" value="" style="edgeStyle=orthogonalEdgeStyle;rounded=0;orthogonalLoop=1;jettySize=auto;html=1;" edge="1" parent="1" source="aeHjqEfYxSuK9q3OLNgD-9" target="amo7JDpk2x5oz3WCBwlw-9">
          <mxGeometry relative="1" as="geometry" />
        </mxCell>
        <mxCell id="aeHjqEfYxSuK9q3OLNgD-9" value="a.find_first_pf(a[i]) ==&lt;br&gt;a.find_last_of(a[i])" style="rhombus;whiteSpace=wrap;html=1;" parent="1" vertex="1">
          <mxGeometry x="550" y="180" width="160" height="50" as="geometry" />
        </mxCell>
        <mxCell id="amo7JDpk2x5oz3WCBwlw-14" style="edgeStyle=orthogonalEdgeStyle;rounded=0;orthogonalLoop=1;jettySize=auto;html=1;entryX=0.5;entryY=0;entryDx=0;entryDy=0;" edge="1" parent="1" source="aeHjqEfYxSuK9q3OLNgD-12" target="aeHjqEfYxSuK9q3OLNgD-17">
          <mxGeometry relative="1" as="geometry">
            <mxPoint x="520" y="340" as="targetPoint" />
            <Array as="points">
              <mxPoint x="520" y="390" />
              <mxPoint x="630" y="390" />
            </Array>
          </mxGeometry>
        </mxCell>
        <mxCell id="aeHjqEfYxSuK9q3OLNgD-12" value="a[i]" style="shape=parallelogram;perimeter=parallelogramPerimeter;whiteSpace=wrap;html=1;fixedSize=1;" parent="1" vertex="1">
          <mxGeometry x="501.5" y="250" width="60" height="20" as="geometry" />
        </mxCell>
        <mxCell id="aeHjqEfYxSuK9q3OLNgD-18" style="edgeStyle=orthogonalEdgeStyle;rounded=0;orthogonalLoop=1;jettySize=auto;html=1;" parent="1" source="aeHjqEfYxSuK9q3OLNgD-17" edge="1">
          <mxGeometry relative="1" as="geometry">
            <mxPoint x="630" y="80" as="targetPoint" />
            <Array as="points">
              <mxPoint x="630" y="440" />
              <mxPoint x="500" y="440" />
              <mxPoint x="500" y="70" />
              <mxPoint x="630" y="70" />
            </Array>
          </mxGeometry>
        </mxCell>
        <mxCell id="aeHjqEfYxSuK9q3OLNgD-17" value="i++" style="rounded=0;whiteSpace=wrap;html=1;" parent="1" vertex="1">
          <mxGeometry x="597.5" y="410" width="65" height="20" as="geometry" />
        </mxCell>
        <mxCell id="aeHjqEfYxSuK9q3OLNgD-20" value="да" style="text;html=1;align=center;verticalAlign=middle;resizable=0;points=[];autosize=1;strokeColor=none;fillColor=none;" parent="1" vertex="1">
          <mxGeometry x="522" y="187" width="30" height="20" as="geometry" />
        </mxCell>
        <mxCell id="aeHjqEfYxSuK9q3OLNgD-21" value="нет" style="text;html=1;align=center;verticalAlign=middle;resizable=0;points=[];autosize=1;strokeColor=none;fillColor=none;" parent="1" vertex="1">
          <mxGeometry x="632.5" y="225" width="30" height="20" as="geometry" />
        </mxCell>
        <mxCell id="aeHjqEfYxSuK9q3OLNgD-24" value="конец" style="rounded=1;whiteSpace=wrap;html=1;" parent="1" vertex="1">
          <mxGeometry x="590" y="470" width="80" height="30" as="geometry" />
        </mxCell>
        <mxCell id="aeHjqEfYxSuK9q3OLNgD-26" value="начало" style="rounded=1;whiteSpace=wrap;html=1;" parent="1" vertex="1">
          <mxGeometry x="295.75" y="35" width="80" height="30" as="geometry" />
        </mxCell>
        <mxCell id="aeHjqEfYxSuK9q3OLNgD-27" value="2" style="text;html=1;align=center;verticalAlign=middle;resizable=0;points=[];autosize=1;strokeColor=none;fillColor=none;" parent="1" vertex="1">
          <mxGeometry x="448.75" y="90" width="20" height="20" as="geometry" />
        </mxCell>
        <mxCell id="aeHjqEfYxSuK9q3OLNgD-28" value="3" style="text;html=1;align=center;verticalAlign=middle;resizable=0;points=[];autosize=1;strokeColor=none;fillColor=none;" parent="1" vertex="1">
          <mxGeometry x="448.75" y="135" width="20" height="20" as="geometry" />
        </mxCell>
        <mxCell id="aeHjqEfYxSuK9q3OLNgD-36" value="нет" style="text;html=1;align=center;verticalAlign=middle;resizable=0;points=[];autosize=1;strokeColor=none;fillColor=none;" parent="1" vertex="1">
          <mxGeometry x="685" y="80" width="30" height="20" as="geometry" />
        </mxCell>
        <mxCell id="amo7JDpk2x5oz3WCBwlw-26" value="" style="edgeStyle=orthogonalEdgeStyle;rounded=0;orthogonalLoop=1;jettySize=auto;html=1;" edge="1" parent="1" source="iNloG7cvI6-7VF_yUZaF-1" target="amo7JDpk2x5oz3WCBwlw-25">
          <mxGeometry relative="1" as="geometry" />
        </mxCell>
        <mxCell id="iNloG7cvI6-7VF_yUZaF-1" value="transform(a.begin(), a.end(), a.begin(), ::tolower)" style="whiteSpace=wrap;html=1;" parent="1" vertex="1">
          <mxGeometry x="260" y="175" width="151.5" height="50" as="geometry" />
        </mxCell>
        <mxCell id="iNloG7cvI6-7VF_yUZaF-4" value="4" style="text;html=1;align=center;verticalAlign=middle;resizable=0;points=[];autosize=1;strokeColor=none;fillColor=none;" parent="1" vertex="1">
          <mxGeometry x="447.25" y="185" width="20" height="20" as="geometry" />
        </mxCell>
        <mxCell id="iNloG7cvI6-7VF_yUZaF-28" value="1" style="ellipse;whiteSpace=wrap;html=1;aspect=fixed;" parent="1" vertex="1">
          <mxGeometry x="618.25" y="11.5" width="23.5" height="23.5" as="geometry" />
        </mxCell>
        <mxCell id="iNloG7cvI6-7VF_yUZaF-30" value="" style="endArrow=classic;html=1;rounded=0;exitX=0.5;exitY=1;exitDx=0;exitDy=0;entryX=0.5;entryY=0;entryDx=0;entryDy=0;" parent="1" source="iNloG7cvI6-7VF_yUZaF-28" target="aeHjqEfYxSuK9q3OLNgD-5" edge="1">
          <mxGeometry width="50" height="50" relative="1" as="geometry">
            <mxPoint x="560" y="190" as="sourcePoint" />
            <mxPoint x="610" y="140" as="targetPoint" />
          </mxGeometry>
        </mxCell>
        <mxCell id="amo7JDpk2x5oz3WCBwlw-6" value="" style="edgeStyle=orthogonalEdgeStyle;rounded=0;orthogonalLoop=1;jettySize=auto;html=1;" edge="1" parent="1" source="amo7JDpk2x5oz3WCBwlw-2">
          <mxGeometry relative="1" as="geometry">
            <mxPoint x="630" y="180" as="targetPoint" />
          </mxGeometry>
        </mxCell>
        <mxCell id="amo7JDpk2x5oz3WCBwlw-23" style="edgeStyle=orthogonalEdgeStyle;rounded=0;orthogonalLoop=1;jettySize=auto;html=1;" edge="1" parent="1" source="amo7JDpk2x5oz3WCBwlw-2">
          <mxGeometry relative="1" as="geometry">
            <mxPoint x="630" y="410" as="targetPoint" />
            <Array as="points">
              <mxPoint x="740" y="145" />
              <mxPoint x="740" y="390" />
              <mxPoint x="630" y="390" />
            </Array>
          </mxGeometry>
        </mxCell>
        <mxCell id="amo7JDpk2x5oz3WCBwlw-2" value="!isalpha(a[i])" style="rhombus;whiteSpace=wrap;html=1;" vertex="1" parent="1">
          <mxGeometry x="570" y="130" width="120" height="30" as="geometry" />
        </mxCell>
        <mxCell id="amo7JDpk2x5oz3WCBwlw-8" value="да" style="text;html=1;align=center;verticalAlign=middle;resizable=0;points=[];autosize=1;strokeColor=none;fillColor=none;" vertex="1" parent="1">
          <mxGeometry x="632.5" y="160" width="30" height="20" as="geometry" />
        </mxCell>
        <mxCell id="amo7JDpk2x5oz3WCBwlw-17" style="edgeStyle=orthogonalEdgeStyle;rounded=0;orthogonalLoop=1;jettySize=auto;html=1;exitX=1;exitY=0.5;exitDx=0;exitDy=0;" edge="1" parent="1" source="amo7JDpk2x5oz3WCBwlw-9">
          <mxGeometry relative="1" as="geometry">
            <mxPoint x="630" y="340" as="targetPoint" />
            <Array as="points">
              <mxPoint x="730" y="281" />
              <mxPoint x="730" y="320" />
              <mxPoint x="630" y="320" />
            </Array>
          </mxGeometry>
        </mxCell>
        <mxCell id="amo7JDpk2x5oz3WCBwlw-18" style="edgeStyle=orthogonalEdgeStyle;rounded=0;orthogonalLoop=1;jettySize=auto;html=1;entryX=0.5;entryY=0;entryDx=0;entryDy=0;" edge="1" parent="1" source="amo7JDpk2x5oz3WCBwlw-9" target="amo7JDpk2x5oz3WCBwlw-21">
          <mxGeometry relative="1" as="geometry">
            <mxPoint x="630" y="330" as="targetPoint" />
            <Array as="points">
              <mxPoint x="540" y="281" />
              <mxPoint x="540" y="320" />
              <mxPoint x="630" y="320" />
            </Array>
          </mxGeometry>
        </mxCell>
        <mxCell id="amo7JDpk2x5oz3WCBwlw-9" value="a.find_first_pf(a[i]) !=&lt;br&gt;a.find_last_of(a[i])" style="rhombus;whiteSpace=wrap;html=1;" vertex="1" parent="1">
          <mxGeometry x="550" y="256" width="160" height="50" as="geometry" />
        </mxCell>
        <mxCell id="amo7JDpk2x5oz3WCBwlw-19" value="да" style="text;html=1;align=center;verticalAlign=middle;resizable=0;points=[];autosize=1;strokeColor=none;fillColor=none;" vertex="1" parent="1">
          <mxGeometry x="533" y="277" width="30" height="20" as="geometry" />
        </mxCell>
        <mxCell id="amo7JDpk2x5oz3WCBwlw-20" value="нет" style="text;html=1;align=center;verticalAlign=middle;resizable=0;points=[];autosize=1;strokeColor=none;fillColor=none;" vertex="1" parent="1">
          <mxGeometry x="700" y="277" width="30" height="20" as="geometry" />
        </mxCell>
        <mxCell id="amo7JDpk2x5oz3WCBwlw-22" style="edgeStyle=orthogonalEdgeStyle;rounded=0;orthogonalLoop=1;jettySize=auto;html=1;entryX=0.5;entryY=0;entryDx=0;entryDy=0;" edge="1" parent="1" source="amo7JDpk2x5oz3WCBwlw-21" target="aeHjqEfYxSuK9q3OLNgD-17">
          <mxGeometry relative="1" as="geometry">
            <Array as="points">
              <mxPoint x="630" y="370" />
              <mxPoint x="630" y="370" />
            </Array>
          </mxGeometry>
        </mxCell>
        <mxCell id="amo7JDpk2x5oz3WCBwlw-21" value="&quot;&quot;" style="shape=parallelogram;perimeter=parallelogramPerimeter;whiteSpace=wrap;html=1;fixedSize=1;" vertex="1" parent="1">
          <mxGeometry x="600" y="341" width="60" height="20" as="geometry" />
        </mxCell>
        <mxCell id="amo7JDpk2x5oz3WCBwlw-24" value="нет" style="text;html=1;align=center;verticalAlign=middle;resizable=0;points=[];autosize=1;strokeColor=none;fillColor=none;" vertex="1" parent="1">
          <mxGeometry x="687" y="128" width="30" height="20" as="geometry" />
        </mxCell>
        <mxCell id="amo7JDpk2x5oz3WCBwlw-25" value="1" style="ellipse;whiteSpace=wrap;html=1;aspect=fixed;" vertex="1" parent="1">
          <mxGeometry x="324" y="245" width="23.5" height="23.5" as="geometry" />
        </mxCell>
        <mxCell id="amo7JDpk2x5oz3WCBwlw-27" value="5" style="text;html=1;align=center;verticalAlign=middle;resizable=0;points=[];autosize=1;strokeColor=none;fillColor=none;" vertex="1" parent="1">
          <mxGeometry x="750" y="40" width="20" height="20" as="geometry" />
        </mxCell>
        <mxCell id="amo7JDpk2x5oz3WCBwlw-28" value="6" style="text;html=1;align=center;verticalAlign=middle;resizable=0;points=[];autosize=1;strokeColor=none;fillColor=none;" vertex="1" parent="1">
          <mxGeometry x="750" y="80" width="20" height="20" as="geometry" />
        </mxCell>
        <mxCell id="amo7JDpk2x5oz3WCBwlw-29" value="7" style="text;html=1;align=center;verticalAlign=middle;resizable=0;points=[];autosize=1;strokeColor=none;fillColor=none;" vertex="1" parent="1">
          <mxGeometry x="750" y="130" width="20" height="20" as="geometry" />
        </mxCell>
        <mxCell id="amo7JDpk2x5oz3WCBwlw-30" value="8" style="text;html=1;align=center;verticalAlign=middle;resizable=0;points=[];autosize=1;strokeColor=none;fillColor=none;" vertex="1" parent="1">
          <mxGeometry x="750" y="190" width="20" height="20" as="geometry" />
        </mxCell>
        <mxCell id="amo7JDpk2x5oz3WCBwlw-31" value="9" style="text;html=1;align=center;verticalAlign=middle;resizable=0;points=[];autosize=1;strokeColor=none;fillColor=none;" vertex="1" parent="1">
          <mxGeometry x="540" y="230" width="20" height="20" as="geometry" />
        </mxCell>
        <mxCell id="amo7JDpk2x5oz3WCBwlw-32" value="10" style="text;html=1;align=center;verticalAlign=middle;resizable=0;points=[];autosize=1;strokeColor=none;fillColor=none;" vertex="1" parent="1">
          <mxGeometry x="745" y="260" width="30" height="20" as="geometry" />
        </mxCell>
        <mxCell id="amo7JDpk2x5oz3WCBwlw-33" value="11" style="text;html=1;align=center;verticalAlign=middle;resizable=0;points=[];autosize=1;strokeColor=none;fillColor=none;" vertex="1" parent="1">
          <mxGeometry x="745" y="340" width="30" height="20" as="geometry" />
        </mxCell>
        <mxCell id="amo7JDpk2x5oz3WCBwlw-34" value="12" style="text;html=1;align=center;verticalAlign=middle;resizable=0;points=[];autosize=1;strokeColor=none;fillColor=none;" vertex="1" parent="1">
          <mxGeometry x="745" y="410" width="30" height="20" as="geometry" />
        </mxCell>
        <mxCell id="amo7JDpk2x5oz3WCBwlw-35" value="13" style="text;html=1;align=center;verticalAlign=middle;resizable=0;points=[];autosize=1;strokeColor=none;fillColor=none;" vertex="1" parent="1">
          <mxGeometry x="745" y="470" width="30" height="20" as="geometry" />
        </mxCell>
      </root>
    </mxGraphModel>
  </diagram>
</mxfile>
